<svg xmlns="http://www.w3.org/2000/svg" viewBox="0 0 218 64" role="img" aria-label="Zuula">
<path d="M38 38 55 55" stroke="#fff" stroke-width="11" stroke-linecap="round"/>
<circle cx="26" cy="26" r="21" fill="#C70036"/>
<path d="M16.5 26.5 23 33 36 20" fill="none" stroke="#fff" stroke-width="6.5" stroke-linecap="round" stroke-linejoin="round"/>
<g transform="translate(76 15) scale(.8)">
<path fill="#fff" d="M0 0H28V9L14.6 31H28V40H0V31L13.4 9H0Z"/>
<g fill="none" stroke="#fff" stroke-width="9"><path d="M39.5 0V22.5A13 13 0 0 0 65.5 22.5M65.5 0V40M81.5 0V22.5A13 13 0 0 0 107.5 22.5M107.5 0V40M123.5-18V40M170.5 0V40"/><circle cx="151" cy="20" r="15.5"/></g>
</g></svg>
